<svg width="100" height="100" viewBox="0 0 100 100" fill="none" xmlns="http://www.w3.org/2000/svg">
<path d="M0 8C0 3.58172 3.58172 0 8 0H92C96.4183 0 100 3.58172 100 8V92C100 96.4183 96.4183 100 92 100H8C3.58172 100 0 96.4183 0 92V8Z" fill="white"/>
<path fill-rule="evenodd" clip-rule="evenodd" d="M27.2465 45.6856C37.2116 49.2421 44.7336 50.9285 49.8126 50.7491C48.799 53.374 43.0415 66.4558 32.5388 90C41.1196 76.5152 53.3951 68.9317 68.6649 64.4892C78.3646 61.6683 79.4234 57.7102 72.7535 55.3144C62.7884 51.7579 55.2664 50.0715 50.1874 50.2509C51.201 47.626 56.9585 34.5442 67.4612 11C58.8804 24.4848 46.6049 32.0683 31.3351 36.5108C21.6354 39.3317 20.5766 43.2898 27.2465 45.6856Z" fill="black"/>
</svg>
